<svg width="20" height="20" viewBox="0 0 20 20" fill="none" xmlns="http://www.w3.org/2000/svg">
<g id="Icon/Editor/attach_money">
<path id="Vector" d="M9.83268 9.08333C7.94102 8.59167 7.33268 8.08333 7.33268 7.29167C7.33268 6.38333 8.17435 5.75 9.58268 5.75C10.766 5.75 11.3577 6.2 11.5743 6.91667C11.6743 7.25 11.9493 7.5 12.2993 7.5H12.5493C13.0993 7.5 13.491 6.95833 13.2993 6.44167C12.9493 5.45833 12.1327 4.64167 10.8327 4.325V3.75C10.8327 3.05833 10.2743 2.5 9.58268 2.5C8.89102 2.5 8.33268 3.05833 8.33268 3.75V4.3C6.71602 4.65 5.41602 5.7 5.41602 7.30833C5.41602 9.23333 7.00768 10.1917 9.33268 10.75C11.416 11.25 11.8327 11.9833 11.8327 12.7583C11.8327 13.3333 11.4243 14.25 9.58268 14.25C8.20768 14.25 7.49935 13.7583 7.22435 13.0583C7.09935 12.7333 6.81602 12.5 6.47435 12.5H6.24102C5.68268 12.5 5.29102 13.0667 5.49935 13.5833C5.97435 14.7417 7.08268 15.425 8.33268 15.6917V16.25C8.33268 16.9417 8.89102 17.5 9.58268 17.5C10.2743 17.5 10.8327 16.9417 10.8327 16.25V15.7083C12.4577 15.4 13.7493 14.4583 13.7493 12.75C13.7493 10.3833 11.7243 9.575 9.83268 9.08333Z" fill="white"/>
</g>
</svg>
