<svg width="68" height="60" viewBox="0 0 68 60" fill="none" xmlns="http://www.w3.org/2000/svg">
<path fill-rule="evenodd" clip-rule="evenodd" d="M25 28.75C25 28.3358 25.3358 28 25.75 28H42.25C42.6642 28 43 28.3358 43 28.75C43 29.1642 42.6642 29.5 42.25 29.5H25.75C25.3358 29.5 25 29.1642 25 28.75ZM25 34C25 33.5858 25.3358 33.25 25.75 33.25H42.25C42.6642 33.25 43 33.5858 43 34C43 34.4142 42.6642 34.75 42.25 34.75H25.75C25.3358 34.75 25 34.4142 25 34ZM25 39.25C25 38.8358 25.3358 38.5 25.75 38.5H42.25C42.6642 38.5 43 38.8358 43 39.25C43 39.6642 42.6642 40 42.25 40H25.75C25.3358 40 25 39.6642 25 39.25Z" fill="white"/>
</svg>
