<svg width="20" height="20" viewBox="0 0 20 20" fill="none" xmlns="http://www.w3.org/2000/svg">
<g id="Icon/Editor/insert_comment">
<path id="Vector" d="M16.666 1.66602H3.33268C2.41602 1.66602 1.66602 2.41602 1.66602 3.33268V13.3327C1.66602 14.2493 2.41602 14.9993 3.33268 14.9993H14.9993L18.3327 18.3327V3.33268C18.3327 2.41602 17.5827 1.66602 16.666 1.66602ZM14.166 11.666H5.83268C5.37435 11.666 4.99935 11.291 4.99935 10.8327C4.99935 10.3743 5.37435 9.99935 5.83268 9.99935H14.166C14.6243 9.99935 14.9993 10.3743 14.9993 10.8327C14.9993 11.291 14.6243 11.666 14.166 11.666ZM14.166 9.16602H5.83268C5.37435 9.16602 4.99935 8.79102 4.99935 8.33268C4.99935 7.87435 5.37435 7.49935 5.83268 7.49935H14.166C14.6243 7.49935 14.9993 7.87435 14.9993 8.33268C14.9993 8.79102 14.6243 9.16602 14.166 9.16602ZM14.166 6.66602H5.83268C5.37435 6.66602 4.99935 6.29102 4.99935 5.83268C4.99935 5.37435 5.37435 4.99935 5.83268 4.99935H14.166C14.6243 4.99935 14.9993 5.37435 14.9993 5.83268C14.9993 6.29102 14.6243 6.66602 14.166 6.66602Z" fill="white"/>
</g>
</svg>
