<svg width="174" height="20" viewBox="0 0 174 20" fill="none" xmlns="http://www.w3.org/2000/svg">
<path d="M1.72878 15.4635C1.72878 15.7106 1.65583 15.9142 1.50994 16.0742C1.36406 16.2486 1.14522 16.3359 0.853447 16.3359C0.56167 16.3359 0.342838 16.2486 0.196949 16.0742C0.0656497 15.9142 0 15.7106 0 15.4635V1.81025C0 1.56307 0.0510609 1.35951 0.153183 1.19956C0.269893 1.03962 0.474137 0.95965 0.765914 0.95965C0.999335 0.95965 1.1817 1.02508 1.31299 1.15594C1.44429 1.2868 1.57559 1.43221 1.70689 1.59215L9.56298 13.0425V1.81025C9.56298 1.56307 9.62133 1.35951 9.73804 1.19956C9.86934 1.03962 10.0955 0.95965 10.4164 0.95965C10.7374 0.95965 10.9635 1.03235 11.0948 1.17775C11.2261 1.32316 11.2918 1.53399 11.2918 1.81025V15.4853C11.2918 15.7325 11.2334 15.936 11.1167 16.096C11.0146 16.2559 10.8176 16.3359 10.5258 16.3359C10.3216 16.3359 10.1392 16.2704 9.97876 16.1396C9.83287 16.0233 9.69428 15.8706 9.56298 15.6816L1.72878 4.42748V15.4635Z" fill="white"/>
<path d="M22.0149 9.85823C22.0149 9.39295 21.9711 8.92766 21.8836 8.46238C21.8106 7.98255 21.6648 7.55362 21.4459 7.17557C21.2271 6.78299 20.9207 6.47037 20.5268 6.23773C20.1475 5.99055 19.6588 5.86696 19.0606 5.86696C18.4187 5.86696 17.8862 6.00509 17.4632 6.28135C17.0547 6.55761 16.7264 6.89931 16.4784 7.30643C16.2304 7.69902 16.0553 8.12795 15.9532 8.59324C15.8511 9.05852 15.8 9.48019 15.8 9.85823H22.0149ZM19.1263 16.554C18.2801 16.554 17.5434 16.394 16.9161 16.0742C16.2888 15.7543 15.7636 15.3253 15.3405 14.7873C14.932 14.2348 14.6256 13.5951 14.4214 12.868C14.2172 12.141 14.115 11.3704 14.115 10.5562C14.115 9.74191 14.2172 8.96401 14.4214 8.22246C14.6402 7.48092 14.9539 6.82661 15.3624 6.25954C15.7855 5.69247 16.3107 5.24173 16.938 4.90731C17.5653 4.57288 18.2947 4.40567 19.1263 4.40567C19.9141 4.40567 20.5925 4.55107 21.1614 4.84188C21.7304 5.13268 22.19 5.51799 22.5401 5.99782C22.9048 6.47764 23.1747 7.03744 23.3498 7.67721C23.5248 8.30243 23.6124 8.96401 23.6124 9.66194C23.6124 10.1999 23.5394 10.5852 23.3935 10.8179C23.2622 11.036 23.0069 11.145 22.6276 11.145H15.8C15.7855 11.6103 15.8511 12.0756 15.997 12.5409C16.1429 13.0062 16.3544 13.4278 16.6316 13.8059C16.9234 14.1839 17.2808 14.4965 17.7039 14.7437C18.127 14.9764 18.6157 15.0927 19.1701 15.0927C19.8849 15.0927 20.4831 14.9982 20.9645 14.8092C21.4605 14.6056 21.8909 14.293 22.2556 13.8713C22.4015 13.7114 22.5401 13.6169 22.6714 13.5878C22.8027 13.5442 22.9194 13.5369 23.0215 13.566C23.1236 13.5951 23.2039 13.6532 23.2622 13.7405C23.3352 13.8132 23.3862 13.8859 23.4154 13.9586C23.5175 14.133 23.4957 14.3657 23.3498 14.6565C23.2185 14.9473 22.9632 15.2381 22.5839 15.5289C22.2191 15.8052 21.745 16.0451 21.1614 16.2486C20.5779 16.4522 19.8995 16.554 19.1263 16.554Z" fill="white"/>
<path d="M29.1045 13.6968L31.6868 5.45256C31.7889 5.14722 31.9056 4.92912 32.0369 4.79825C32.1682 4.66739 32.336 4.60196 32.5402 4.60196C32.7445 4.60196 32.9122 4.66739 33.0435 4.79825C33.1748 4.92912 33.2915 5.14722 33.3937 5.45256L36.0415 13.675L38.6238 5.40894C38.7842 4.87096 39.076 4.60196 39.4991 4.60196C39.7909 4.60196 39.9878 4.66012 40.0899 4.77644C40.1921 4.89277 40.2504 5.0309 40.265 5.19084C40.2796 5.35078 40.2358 5.59796 40.1337 5.93239C40.0316 6.25227 39.9368 6.5358 39.8492 6.78299L36.9825 15.4198C36.8658 15.7252 36.7345 15.9506 36.5886 16.096C36.4427 16.2559 36.2458 16.3359 35.9978 16.3359C35.6914 16.3359 35.458 16.2414 35.2975 16.0523C35.1516 15.8633 35.0422 15.6234 34.9693 15.3326L32.5402 7.41549L30.33 14.5474C30.1695 15.0563 30.0091 15.4853 29.8486 15.8342C29.7027 16.1687 29.4547 16.3359 29.1045 16.3359C28.8857 16.3359 28.6961 16.2704 28.5356 16.1396C28.3751 16.0087 28.2365 15.7688 28.1198 15.4198L25.2531 6.78299C25.1802 6.5358 25.0926 6.25954 24.9905 5.9542C24.8884 5.63431 24.8446 5.3944 24.8592 5.23446C24.8738 5.05998 24.9321 4.91458 25.0343 4.79825C25.151 4.66739 25.3552 4.60196 25.647 4.60196C26.0555 4.60196 26.3327 4.85641 26.4786 5.36532L29.1045 13.6968Z" fill="white"/>
<path d="M49.5502 9.85823C49.5502 9.39295 49.5064 8.92766 49.4189 8.46238C49.3459 7.98255 49.2 7.55362 48.9812 7.17557C48.7624 6.78299 48.456 6.47037 48.0621 6.23773C47.6828 5.99055 47.1941 5.86696 46.5959 5.86696C45.954 5.86696 45.4215 6.00509 44.9985 6.28135C44.59 6.55761 44.2617 6.89931 44.0137 7.30643C43.7657 7.69902 43.5906 8.12795 43.4885 8.59324C43.3864 9.05852 43.3353 9.48019 43.3353 9.85823H49.5502ZM46.6616 16.554C45.8154 16.554 45.0787 16.394 44.4514 16.0742C43.8241 15.7543 43.2989 15.3253 42.8758 14.7873C42.4673 14.2348 42.1609 13.5951 41.9567 12.868C41.7524 12.141 41.6503 11.3704 41.6503 10.5562C41.6503 9.74191 41.7524 8.96401 41.9567 8.22246C42.1755 7.48092 42.4892 6.82661 42.8977 6.25954C43.3207 5.69247 43.8459 5.24173 44.4733 4.90731C45.1006 4.57288 45.83 4.40567 46.6616 4.40567C47.4494 4.40567 48.1278 4.55107 48.6967 4.84188C49.2657 5.13268 49.7252 5.51799 50.0754 5.99782C50.4401 6.47764 50.71 7.03744 50.885 7.67721C51.0601 8.30243 51.1476 8.96401 51.1476 9.66194C51.1476 10.1999 51.0747 10.5852 50.9288 10.8179C50.7975 11.036 50.5422 11.145 50.1629 11.145H43.3353C43.3207 11.6103 43.3864 12.0756 43.5323 12.5409C43.6782 13.0062 43.8897 13.4278 44.1669 13.8059C44.4587 14.1839 44.8161 14.4965 45.2392 14.7437C45.6622 14.9764 46.151 15.0927 46.7053 15.0927C47.4202 15.0927 48.0183 14.9982 48.4998 14.8092C48.9958 14.6056 49.4262 14.293 49.7909 13.8713C49.9368 13.7114 50.0754 13.6169 50.2067 13.5878C50.338 13.5442 50.4547 13.5369 50.5568 13.566C50.6589 13.5951 50.7392 13.6532 50.7975 13.7405C50.8705 13.8132 50.9215 13.8859 50.9507 13.9586C51.0528 14.133 51.0309 14.3657 50.885 14.6565C50.7537 14.9473 50.4984 15.2381 50.1191 15.5289C49.7544 15.8052 49.2803 16.0451 48.6967 16.2486C48.1132 16.4522 47.4348 16.554 46.6616 16.554Z" fill="white"/>
<path d="M61.9137 10.5344C61.9137 9.83642 61.8407 9.21119 61.6949 8.65867C61.5636 8.0916 61.352 7.60451 61.0602 7.19738C60.7685 6.79026 60.4037 6.48491 59.9661 6.28135C59.5284 6.06325 59.0178 5.9542 58.4342 5.9542C57.9091 5.9542 57.4422 6.07779 57.0337 6.32497C56.6398 6.55761 56.3043 6.88477 56.0271 7.30643C55.7499 7.7281 55.5384 8.22246 55.3925 8.78953C55.2466 9.34206 55.1736 9.93093 55.1736 10.5562C55.1736 11.1814 55.2393 11.763 55.3706 12.301C55.5019 12.839 55.6988 13.3115 55.9614 13.7186C56.224 14.1112 56.5523 14.4238 56.9462 14.6565C57.3547 14.8746 57.8361 14.9836 58.3905 14.9836C59.4992 14.9836 60.36 14.5911 60.9727 13.8059C61.5854 13.0207 61.8991 11.9302 61.9137 10.5344ZM55.2393 15.4635C55.2393 15.6961 55.1736 15.8997 55.0423 16.0742C54.911 16.2486 54.6849 16.3286 54.364 16.3141C54.043 16.3141 53.8169 16.2268 53.6856 16.0523C53.5689 15.8924 53.5105 15.6961 53.5105 15.4635V0.872409C53.5105 0.639767 53.5762 0.436205 53.7075 0.261722C53.8388 0.0872407 54.0503 0 54.3421 0C54.6339 0 54.8454 0.0872407 54.9767 0.261722C55.1226 0.436205 55.1955 0.639767 55.1955 0.872409V7.06652C55.5019 6.32497 55.9614 5.70701 56.5742 5.21265C57.2015 4.71828 57.9528 4.46383 58.8282 4.44929C59.4555 4.44929 60.0609 4.56561 60.6445 4.79825C61.228 5.01636 61.7386 5.37259 62.1763 5.86696C62.6285 6.36132 62.986 6.99382 63.2486 7.76445C63.5112 8.53508 63.6425 9.45838 63.6425 10.5344C63.6425 11.4213 63.5258 12.2283 63.2923 12.9553C63.0589 13.6823 62.7307 14.3075 62.3076 14.831C61.8991 15.3399 61.4031 15.7397 60.8195 16.0305C60.236 16.3068 59.6014 16.4449 58.9157 16.4449C58.0404 16.4449 57.2963 16.2414 56.6836 15.8342C56.0709 15.4271 55.5894 14.8455 55.2393 14.0894V15.4635Z" fill="white"/>
<path d="M65.8677 2.24646C65.8677 1.82479 65.9407 1.54853 66.0865 1.41767C66.247 1.27226 66.5899 1.19956 67.1151 1.19956H70.5726C72.2212 1.19956 73.4393 1.57034 74.2271 2.31189C75.0149 3.03889 75.4088 4.19484 75.4088 5.77972C75.4088 8.89131 73.7967 10.4471 70.5726 10.4471H67.5965V15.4635C67.5965 15.7397 67.5308 15.9506 67.3995 16.096C67.2682 16.2559 67.0494 16.3359 66.743 16.3359C66.4221 16.3359 66.196 16.2486 66.0647 16.0742C65.9334 15.9142 65.8677 15.7106 65.8677 15.4635V2.24646ZM67.5965 8.96401H70.5726C71.696 8.96401 72.4983 8.70956 72.9798 8.20065C73.4612 7.69175 73.7019 6.89204 73.7019 5.80153C73.7019 4.71101 73.432 3.92584 72.8922 3.44602C72.3525 2.96619 71.5792 2.72628 70.5726 2.72628H67.5965V8.96401Z" fill="white"/>
<path d="M79.0402 10.5344C79.0548 11.9302 79.3685 13.0207 79.9812 13.8059C80.5939 14.5911 81.4547 14.9836 82.5634 14.9836C83.1178 14.9836 83.5919 14.8746 83.9858 14.6565C84.3943 14.4238 84.7299 14.1112 84.9925 13.7186C85.2551 13.3115 85.452 12.839 85.5833 12.301C85.7146 11.763 85.7803 11.1814 85.7803 10.5562C85.7803 9.93093 85.7073 9.34206 85.5614 8.78953C85.4156 8.22246 85.204 7.73537 84.9268 7.32824C84.6496 6.90658 84.3068 6.57215 83.8983 6.32497C83.5044 6.07779 83.0449 5.9542 82.5197 5.9542C81.9215 5.9542 81.4036 6.06325 80.966 6.28135C80.5429 6.48491 80.1855 6.79026 79.8937 7.19738C79.6019 7.60451 79.3831 8.0916 79.2372 8.65867C79.1059 9.21119 79.0402 9.83642 79.0402 10.5344ZM85.7146 14.0894C85.3645 14.8455 84.8977 15.4271 84.3141 15.8342C83.7451 16.2414 83.0157 16.4449 82.1258 16.4449C81.4109 16.4449 80.7544 16.3068 80.1563 16.0305C79.5727 15.7397 79.0694 15.3399 78.6463 14.831C78.2233 14.3075 77.895 13.6823 77.6616 12.9553C77.4282 12.2283 77.3115 11.4213 77.3115 10.5344C77.3115 9.45838 77.4428 8.53508 77.7054 7.76445C77.9825 6.99382 78.34 6.36132 78.7776 5.86696C79.2299 5.37259 79.7551 5.01636 80.3532 4.79825C80.9514 4.56561 81.5787 4.44929 82.2352 4.44929C83.1105 4.46383 83.8473 4.71828 84.4454 5.21265C85.0435 5.70701 85.4812 6.32497 85.7584 7.06652V5.47437C85.7584 5.24173 85.824 5.03817 85.9553 4.86369C86.1012 4.6892 86.3201 4.60196 86.6118 4.60196C86.9036 4.6165 87.1152 4.71101 87.2465 4.8855C87.3778 5.04544 87.4434 5.24173 87.4434 5.47437V15.4417C87.4434 15.6743 87.3778 15.8706 87.2465 16.0305C87.1297 16.205 86.9109 16.2995 86.59 16.3141C86.269 16.3141 86.0429 16.2268 85.9116 16.0523C85.7803 15.8779 85.7146 15.6743 85.7146 15.4417V14.0894Z" fill="white"/>
<path d="M97.4892 13.5224C97.212 14.1767 96.7816 14.7292 96.1981 15.1799C95.6145 15.6307 94.8851 15.8561 94.0098 15.8561C93.47 15.8561 92.9521 15.7761 92.456 15.6161C91.96 15.4562 91.5224 15.2163 91.143 14.8964C90.7783 14.562 90.4793 14.1403 90.2458 13.6314C90.027 13.1225 89.9176 12.5191 89.9176 11.8212V5.38713C89.9176 4.86369 90.1875 4.60196 90.7273 4.60196C91.2962 4.60196 91.5807 4.86369 91.5807 5.38713V11.1668C91.5807 12.3301 91.8287 13.1516 92.3247 13.6314C92.8208 14.1112 93.5064 14.3511 94.3818 14.3511C94.7465 14.3511 95.1112 14.2857 95.4759 14.1549C95.8552 14.024 96.1908 13.8277 96.4826 13.566C96.7743 13.2897 97.0078 12.9407 97.1828 12.5191C97.3725 12.0829 97.4673 11.5594 97.4673 10.9487V5.38713C97.4673 4.86369 97.7445 4.60196 98.2989 4.60196C98.5469 4.60196 98.7438 4.67466 98.8897 4.82007C99.0502 4.96547 99.1304 5.15449 99.1304 5.38713V15.7252C99.1304 16.365 99.0064 16.9466 98.7584 17.47C98.5104 17.9935 98.1603 18.4442 97.708 18.8222C97.2558 19.2003 96.7014 19.4911 96.0449 19.6947C95.403 19.8982 94.6808 20 93.8784 20C93.0469 19.9855 92.3393 19.8764 91.7558 19.6728C91.1868 19.4693 90.6324 19.1639 90.0927 18.7568C89.8884 18.5969 89.7717 18.4151 89.7425 18.2116C89.7133 18.008 89.7352 17.7972 89.8082 17.5791C89.8957 17.361 90.0343 17.2374 90.224 17.2083C90.4282 17.1937 90.6324 17.2883 90.8367 17.4918C91.1868 17.7972 91.6318 18.0371 92.1716 18.2116C92.7113 18.4006 93.3095 18.4878 93.966 18.4733C95.0164 18.4442 95.8625 18.1825 96.5044 17.6881C97.1609 17.2083 97.4892 16.554 97.4892 15.7252V13.5224Z" fill="white"/>
<path d="M120.189 16.9802C120.189 17.1732 120.136 17.3208 120.031 17.423C119.938 17.5252 119.774 17.5763 119.541 17.5763H104.108C103.863 17.5763 103.694 17.5252 103.601 17.423C103.519 17.3208 103.479 17.1732 103.479 16.9802C103.479 16.7986 103.514 16.651 103.583 16.5375C103.665 16.4353 103.84 16.3842 104.108 16.3842H105.316V14.9027C105.316 14.3578 105.438 13.9775 105.683 13.7617C105.928 13.546 106.331 13.4382 106.891 13.4382H116.847C117.441 13.4382 117.856 13.546 118.089 13.7617C118.322 13.9775 118.439 14.3578 118.439 14.9027V16.3842H119.541C119.798 16.3842 119.967 16.4353 120.049 16.5375C120.142 16.651 120.189 16.7986 120.189 16.9802ZM112.402 9.48747C112.402 9.72587 112.379 9.91887 112.332 10.0665C112.286 10.214 112.204 10.3332 112.087 10.4241C111.982 10.5035 111.831 10.5603 111.632 10.5944C111.434 10.6171 111.189 10.6284 110.897 10.6284H109.62V11.6502H111.93C112.128 11.6502 112.291 11.6785 112.42 11.7353C112.56 11.7921 112.641 11.934 112.665 12.161C112.665 12.354 112.595 12.4959 112.455 12.5867C112.326 12.6662 112.151 12.7059 111.93 12.7059H106.278C105.951 12.7059 105.683 12.6946 105.473 12.6719C105.275 12.6378 105.117 12.5811 105.001 12.5016C104.884 12.4108 104.802 12.2973 104.756 12.161C104.721 12.0134 104.703 11.8204 104.703 11.582V6.84797C104.703 6.63226 104.721 6.4563 104.756 6.32007C104.791 6.17248 104.861 6.05895 104.966 5.97949C105.082 5.90002 105.246 5.84893 105.456 5.82622C105.666 5.79217 105.94 5.77514 106.278 5.77514H111.895C112.116 5.77514 112.291 5.81487 112.42 5.89434C112.548 5.96246 112.612 6.09301 112.612 6.28601C112.612 6.53577 112.548 6.68903 112.42 6.74579C112.291 6.80255 112.116 6.83094 111.895 6.83094H109.69V7.69942H110.897C111.189 7.69942 111.428 7.71645 111.615 7.7505C111.813 7.78456 111.971 7.847 112.087 7.93782C112.204 8.02864 112.286 8.1592 112.332 8.32949C112.379 8.48843 112.402 8.69278 112.402 8.94254V9.48747ZM109.218 4.88963C109.218 5.32103 108.984 5.53673 108.518 5.53673C108.331 5.53673 108.179 5.48564 108.063 5.38347C107.946 5.2813 107.888 5.11668 107.888 4.88963V4.42984H104.266C103.858 4.42984 103.653 4.23117 103.653 3.83383C103.653 3.37972 103.858 3.15267 104.266 3.15267H107.888V2.42042C107.888 2.19337 107.946 2.02875 108.063 1.92658C108.179 1.8244 108.331 1.77332 108.518 1.77332C108.984 1.77332 109.218 1.98902 109.218 2.42042V3.15267H111.212C111.621 3.15267 111.825 3.37972 111.825 3.83383C111.825 4.04953 111.766 4.20279 111.65 4.29361C111.545 4.38443 111.399 4.42984 111.212 4.42984H109.218V4.88963ZM114.659 2.42042C114.659 1.98902 114.881 1.77332 115.324 1.77332C115.523 1.77332 115.686 1.8244 115.814 1.92658C115.942 2.02875 116.007 2.19337 116.007 2.42042V3.15267H119.664C120.072 3.15267 120.276 3.37972 120.276 3.83383C120.276 4.04953 120.218 4.20279 120.101 4.29361C119.996 4.38443 119.85 4.42984 119.664 4.42984H116.007V4.94071C116.007 5.13371 115.942 5.28697 115.814 5.4005C115.686 5.51402 115.523 5.57079 115.324 5.57079C115.114 5.57079 114.951 5.51402 114.834 5.4005C114.718 5.28697 114.659 5.13371 114.659 4.94071V4.42984H112.875C112.466 4.42984 112.262 4.23117 112.262 3.83383C112.262 3.37972 112.466 3.15267 112.875 3.15267H114.659V2.42042ZM115.062 6.52441C115.027 6.68335 114.992 6.83661 114.957 6.9842C114.922 7.13178 114.881 7.27937 114.834 7.42695H119.121C119.343 7.42695 119.518 7.46101 119.646 7.52913C119.786 7.58589 119.856 7.7278 119.856 7.95485C119.856 8.17055 119.792 8.32381 119.664 8.41464C119.535 8.4941 119.354 8.53384 119.121 8.53384H114.519C114.484 8.65872 114.444 8.77225 114.397 8.87442C114.362 8.97659 114.321 9.08444 114.274 9.19797C114.239 9.3115 114.193 9.43638 114.134 9.57261C114.076 9.70884 114.006 9.87346 113.924 10.0665C113.796 10.3276 113.644 10.4979 113.47 10.5773C113.306 10.6568 113.143 10.6511 112.98 10.5603C112.793 10.4808 112.682 10.3616 112.647 10.2027C112.612 10.0437 112.665 9.80534 112.805 9.48747C112.98 9.10147 113.114 8.7836 113.207 8.53384C113.312 8.28408 113.394 8.05135 113.452 7.83565C113.522 7.61995 113.58 7.39857 113.627 7.17152C113.685 6.93311 113.755 6.63226 113.837 6.26898C113.907 5.97381 113.994 5.76946 114.099 5.65593C114.216 5.54241 114.397 5.51402 114.642 5.57079C114.875 5.6162 115.021 5.7127 115.079 5.86028C115.138 5.99651 115.132 6.21789 115.062 6.52441ZM118.299 11.1052C118.567 11.1052 118.771 11.1393 118.911 11.2074C119.051 11.2755 119.121 11.4345 119.121 11.6842C119.121 11.9113 119.04 12.0645 118.876 12.144C118.725 12.2235 118.532 12.2632 118.299 12.2632H114.309C114.076 12.2632 113.895 12.2235 113.767 12.144C113.639 12.0532 113.575 11.8942 113.575 11.6672C113.575 11.4288 113.644 11.2755 113.784 11.2074C113.936 11.1393 114.123 11.1052 114.344 11.1052H118.299ZM114.432 14.5791V16.3842H117.091V14.8175C117.091 14.6586 117.01 14.5791 116.847 14.5791H114.432ZM110.547 16.3842H113.137V14.5791H110.547V16.3842ZM106.663 16.3842H109.253V14.5791H106.891C106.739 14.5791 106.663 14.6586 106.663 14.8175V16.3842ZM105.963 8.73819V9.60667H110.897C111.049 9.60667 111.125 9.56693 111.125 9.48747V8.87442C111.125 8.7836 111.049 8.73819 110.897 8.73819H105.963ZM108.395 11.6502V10.6284H105.963V11.3777C105.963 11.4799 105.981 11.5537 106.016 11.5991C106.062 11.6331 106.15 11.6502 106.278 11.6502H108.395ZM105.963 7.69942H108.465V6.83094H106.278C106.068 6.83094 105.963 6.92743 105.963 7.12043V7.69942Z" fill="white"/>
<path d="M132.139 9.7429C132.139 10.7987 132.093 11.7239 131.999 12.5186C131.906 13.3133 131.76 14.0172 131.562 14.6302C131.375 15.2433 131.13 15.7882 130.827 16.265C130.535 16.7418 130.185 17.1846 129.777 17.5933C129.299 18.0701 128.896 18.1042 128.57 17.6955C128.418 17.5025 128.366 17.3208 128.412 17.1505C128.471 16.9916 128.593 16.8213 128.78 16.6397C129.445 16.0039 129.946 15.2262 130.285 14.3067C130.623 13.3871 130.792 12.2405 130.792 10.8668V4.9918C130.792 4.66257 130.809 4.39011 130.844 4.17441C130.891 3.95871 130.955 3.78842 131.037 3.66354C131.119 3.52731 131.224 3.43081 131.352 3.37404C131.492 3.31728 131.655 3.27755 131.842 3.25484C132.542 3.17537 133.259 3.06185 133.994 2.91426C134.741 2.75532 135.411 2.56233 136.006 2.33527C136.321 2.21039 136.584 2.17066 136.794 2.21607C137.015 2.26148 137.155 2.40339 137.213 2.6418C137.272 2.8802 137.248 3.06184 137.143 3.18672C137.05 3.30025 136.869 3.4081 136.601 3.51028C136.298 3.61245 135.971 3.71462 135.621 3.8168C135.283 3.90762 134.933 3.99277 134.571 4.07223C134.21 4.14035 133.854 4.20847 133.504 4.27658C133.166 4.33335 132.857 4.37876 132.577 4.41281C132.39 4.43552 132.268 4.47525 132.209 4.53202C132.163 4.58878 132.139 4.68528 132.139 4.82151V7.34181H137.423C137.68 7.34181 137.849 7.39289 137.931 7.49507C138.024 7.59724 138.071 7.75618 138.071 7.97188C138.071 8.21029 138.024 8.38058 137.931 8.48275C137.849 8.58493 137.68 8.63601 137.423 8.63601H135.779V17.5763C135.779 17.826 135.715 18.002 135.586 18.1042C135.47 18.2063 135.318 18.2574 135.131 18.2574C134.898 18.2574 134.723 18.2063 134.606 18.1042C134.501 18.002 134.449 17.826 134.449 17.5763V8.63601H132.139V9.7429ZM121.868 8.90848C121.635 8.90848 121.466 8.85739 121.361 8.75522C121.268 8.65304 121.221 8.49411 121.221 8.2784C121.221 8.05135 121.262 7.88674 121.343 7.78456C121.437 7.68239 121.612 7.6313 121.868 7.6313H123.67C123.67 7.6086 123.665 7.59157 123.653 7.58021C123.653 7.55751 123.653 7.5348 123.653 7.5121C123.583 7.23963 123.49 6.95014 123.373 6.64362C123.268 6.33709 123.163 6.05328 123.058 5.79217C122.988 5.59917 122.953 5.4232 122.953 5.26427C122.953 5.09398 123.07 4.96342 123.303 4.8726C123.49 4.79313 123.659 4.78178 123.81 4.83854C123.962 4.88395 124.102 5.04857 124.23 5.33238C124.312 5.52538 124.4 5.75811 124.493 6.03057C124.586 6.30304 124.709 6.66065 124.86 7.1034C124.93 7.35316 124.959 7.52913 124.948 7.6313H127.082C127.234 7.30207 127.38 6.95582 127.52 6.59253C127.66 6.21789 127.759 5.90002 127.817 5.6389C127.899 5.30968 128.004 5.08262 128.132 4.95774C128.261 4.82151 128.459 4.78745 128.727 4.85557C128.972 4.91233 129.124 5.03154 129.182 5.21318C129.252 5.39482 129.223 5.66161 129.095 6.01354C129.025 6.20654 128.931 6.44494 128.815 6.72876C128.71 7.01258 128.593 7.31343 128.465 7.6313H129.987C130.244 7.6313 130.413 7.68239 130.494 7.78456C130.588 7.88674 130.634 8.05135 130.634 8.2784C130.634 8.49411 130.582 8.65304 130.477 8.75522C130.384 8.85739 130.22 8.90848 129.987 8.90848H126.628V10.6114H129.392C129.637 10.6114 129.8 10.6625 129.882 10.7646C129.975 10.8668 130.022 11.0258 130.022 11.2415C130.022 11.4572 129.975 11.6161 129.882 11.7183C129.8 11.8204 129.637 11.8715 129.392 11.8715H126.628V17.2016C126.628 17.4741 126.587 17.6614 126.505 17.7636C126.435 17.8657 126.26 17.9168 125.98 17.9168C125.759 17.9168 125.601 17.8771 125.508 17.7976C125.414 17.7295 125.368 17.5308 125.368 17.2016V11.8715H122.481C122.247 11.8715 122.078 11.8204 121.973 11.7183C121.88 11.6161 121.833 11.4572 121.833 11.2415C121.833 11.0258 121.88 10.8668 121.973 10.7646C122.078 10.6625 122.247 10.6114 122.481 10.6114H125.368V8.90848H121.868ZM129.48 3.44216C129.713 3.44216 129.876 3.49325 129.97 3.59542C130.075 3.6976 130.127 3.86221 130.127 4.08926C130.127 4.30496 130.075 4.4639 129.97 4.56608C129.876 4.66825 129.713 4.71934 129.48 4.71934H122.516C122.049 4.71934 121.816 4.50364 121.816 4.07223C121.816 3.85653 121.862 3.6976 121.956 3.59542C122.061 3.49325 122.236 3.44216 122.481 3.44216H125.438C125.391 3.31728 125.344 3.1924 125.298 3.06752C125.251 2.94264 125.204 2.82344 125.158 2.70991C124.959 2.19904 125.105 1.88117 125.595 1.75629C125.992 1.67682 126.289 1.87549 126.488 2.3523C126.569 2.53395 126.633 2.71559 126.68 2.89723C126.738 3.07887 126.791 3.26052 126.838 3.44216H129.48ZM124.125 12.2121C124.569 12.3029 124.691 12.6378 124.493 13.2168C124.248 13.9093 123.991 14.511 123.723 15.0219C123.466 15.5328 123.181 16.0323 122.866 16.5205C122.679 16.7929 122.498 16.9632 122.323 17.0313C122.148 17.0994 121.985 17.0767 121.833 16.9632C121.658 16.8383 121.559 16.6964 121.536 16.5375C121.512 16.3785 121.582 16.1742 121.746 15.9244C122.049 15.4363 122.317 14.9481 122.551 14.4599C122.796 13.9718 123.017 13.4325 123.216 12.8422C123.321 12.547 123.437 12.354 123.566 12.2632C123.705 12.1724 123.892 12.1553 124.125 12.2121ZM129.252 15.3284C129.334 15.6122 129.34 15.8223 129.27 15.9585C129.2 16.0947 129.048 16.1969 128.815 16.265C128.57 16.3331 128.383 16.3161 128.255 16.2139C128.138 16.1231 128.051 15.9642 127.992 15.7371C127.899 15.3284 127.782 14.9027 127.642 14.4599C127.514 14.0172 127.374 13.5744 127.222 13.1317C127.117 12.8365 127.094 12.6208 127.152 12.4846C127.211 12.3483 127.345 12.2462 127.555 12.1781C127.777 12.1099 127.952 12.1099 128.08 12.1781C128.208 12.2348 128.336 12.4278 128.465 12.757C128.593 13.1203 128.716 13.495 128.832 13.881C128.949 14.2556 129.089 14.7381 129.252 15.3284Z" fill="white"/>
<path d="M146.487 10.4241V8.34652H141.85C141.314 8.34652 141.045 8.13082 141.045 7.69942C141.045 7.51778 141.098 7.37587 141.203 7.27369C140.818 7.46669 140.445 7.63698 140.083 7.78456C139.675 7.95485 139.371 8.01162 139.173 7.95485C138.975 7.88674 138.847 7.7278 138.788 7.47804C138.73 7.2964 138.753 7.12043 138.858 6.95014C138.975 6.77985 139.197 6.63226 139.523 6.50738C140.62 6.08734 141.71 5.5197 142.795 4.80448C143.892 4.07791 144.988 3.20943 146.085 2.19904C146.225 2.07416 146.37 1.98334 146.522 1.92658C146.674 1.86981 146.831 1.84143 146.995 1.84143C147.368 1.84143 147.706 1.97199 148.009 2.2331C149.141 3.22078 150.307 4.09494 151.509 4.85557C152.71 5.6162 153.912 6.18383 155.113 6.55847C155.288 6.61524 155.446 6.72876 155.586 6.89905C155.726 7.05799 155.749 7.26234 155.656 7.5121C155.562 7.7505 155.422 7.88674 155.236 7.92079C155.061 7.9435 154.851 7.92647 154.606 7.86971C153.953 7.6313 153.299 7.34181 152.646 7.00123C151.993 6.66065 151.351 6.29736 150.721 5.91137C150.103 5.51403 149.508 5.09965 148.937 4.66825C148.365 4.2255 147.834 3.78274 147.344 3.33999C147.111 3.14699 146.89 3.15267 146.68 3.35702C145.851 4.09494 145.029 4.7761 144.212 5.4005C143.408 6.0249 142.515 6.59253 141.535 7.1034C141.652 7.0807 141.757 7.06934 141.85 7.06934H152.349C152.594 7.06934 152.786 7.12043 152.926 7.2226C153.078 7.32478 153.154 7.48372 153.154 7.69942C153.154 7.91512 153.078 8.07973 152.926 8.19326C152.786 8.29543 152.594 8.34652 152.349 8.34652H147.869V10.4241H153.888C154.425 10.4241 154.693 10.6398 154.693 11.0712C154.693 11.2869 154.618 11.4458 154.466 11.548C154.326 11.6502 154.133 11.7012 153.888 11.7012H147.869V16.3842H149.724C149.502 16.1118 149.555 15.7655 149.882 15.3454C150.243 14.8686 150.552 14.4202 150.809 14.0002C151.077 13.5801 151.346 13.1033 151.614 12.5697C151.742 12.32 151.87 12.1497 151.999 12.0588C152.127 11.9567 152.302 11.951 152.524 12.0418C152.792 12.144 152.938 12.2916 152.961 12.4846C152.984 12.6662 152.932 12.8819 152.804 13.1317C152.5 13.7107 152.185 14.2556 151.859 14.7665C151.544 15.2773 151.223 15.7541 150.896 16.1969C150.873 16.231 150.844 16.265 150.809 16.2991C150.774 16.3331 150.745 16.3615 150.721 16.3842H154.693C155.218 16.3842 155.481 16.5999 155.481 17.0313C155.481 17.2357 155.405 17.3946 155.253 17.5081C155.113 17.633 154.927 17.6955 154.693 17.6955H139.628C139.395 17.6955 139.208 17.633 139.068 17.5081C138.94 17.3946 138.876 17.2357 138.876 17.0313C138.876 16.5999 139.127 16.3842 139.628 16.3842H143.128C143.058 16.2707 142.993 16.1288 142.935 15.9585C142.842 15.6747 142.743 15.4079 142.638 15.1581C142.544 14.9197 142.445 14.6927 142.34 14.477C142.247 14.2499 142.142 14.0229 142.025 13.7958C141.909 13.5688 141.786 13.3247 141.658 13.0636C141.506 12.7684 141.43 12.547 141.43 12.3994C141.442 12.2518 141.547 12.0986 141.745 11.9396C141.932 11.8148 142.119 11.7807 142.305 11.8375C142.504 11.8829 142.684 12.0532 142.848 12.3483C142.988 12.6095 143.11 12.8592 143.215 13.0976C143.332 13.3247 143.443 13.5631 143.548 13.8128C143.653 14.0626 143.757 14.3294 143.862 14.6132C143.967 14.8857 144.078 15.1865 144.195 15.5157C144.335 15.9131 144.335 16.2026 144.195 16.3842H146.487V11.7012H140.52C140.019 11.7012 139.768 11.4912 139.768 11.0712C139.768 10.6398 140.019 10.4241 140.52 10.4241H146.487Z" fill="white"/>
<path d="M161.92 4.94071C161.651 4.94071 161.477 4.88395 161.395 4.77042C161.325 4.6569 161.29 4.50364 161.29 4.31064C161.29 4.11764 161.325 3.96438 161.395 3.85086C161.477 3.72598 161.651 3.66354 161.92 3.66354H165.734C165.909 3.44784 166.072 3.23781 166.224 3.03346C166.387 2.81776 166.545 2.61341 166.697 2.42042C166.848 2.22742 167 2.09687 167.151 2.02875C167.315 1.96064 167.49 1.97199 167.676 2.06281C167.851 2.15363 167.962 2.30122 168.009 2.50556C168.056 2.69856 167.991 2.90291 167.816 3.11861C167.735 3.20943 167.659 3.30025 167.589 3.39107C167.519 3.48189 167.449 3.57272 167.379 3.66354H172.383C172.64 3.66354 172.809 3.72598 172.891 3.85086C172.984 3.96438 173.031 4.11764 173.031 4.31064C173.031 4.50364 172.984 4.6569 172.891 4.77042C172.809 4.88395 172.64 4.94071 172.383 4.94071H166.347C165.798 5.64458 165.279 6.27466 164.789 6.83094C164.311 7.38722 163.821 7.92647 163.32 8.44869C163.215 8.55087 163.18 8.63034 163.215 8.6871C163.261 8.74386 163.366 8.76657 163.53 8.75522C164.696 8.69845 165.833 8.65304 166.942 8.61898C168.05 8.58493 169.187 8.54519 170.354 8.49978C170.155 8.17055 169.934 7.84133 169.689 7.5121C169.444 7.17152 169.187 6.82526 168.919 6.47333C168.65 6.11004 168.662 5.79784 168.954 5.53673C169.094 5.41185 169.275 5.37212 169.496 5.41753C169.718 5.46294 169.91 5.59917 170.074 5.82622C170.389 6.23492 170.668 6.60956 170.913 6.95014C171.17 7.27937 171.403 7.61427 171.613 7.95485C171.835 8.29543 172.051 8.65304 172.261 9.02768C172.471 9.40232 172.692 9.83372 172.926 10.3219C173.031 10.5376 173.066 10.7419 173.031 10.9349C173.007 11.1279 172.902 11.2698 172.716 11.3607C172.506 11.4855 172.313 11.5026 172.138 11.4117C171.975 11.3096 171.835 11.145 171.718 10.9179C171.613 10.6909 171.503 10.4751 171.386 10.2708C171.281 10.0665 171.176 9.86778 171.071 9.67478L162.095 10.0324C161.815 10.021 161.587 9.9586 161.412 9.84507C161.237 9.72019 161.15 9.55558 161.15 9.35123C161.15 9.215 161.185 9.06742 161.255 8.90848C161.337 8.73819 161.477 8.5679 161.675 8.39761C162.165 7.95485 162.678 7.43263 163.215 6.83094C163.763 6.21789 164.282 5.58782 164.772 4.94071H161.92ZM170.406 16.1799C170.406 16.2707 170.412 16.3502 170.424 16.4183C170.447 16.4977 170.488 16.5659 170.546 16.6226C170.604 16.6907 170.686 16.7418 170.791 16.7759C170.896 16.8099 171.042 16.827 171.228 16.827H172.296C172.552 16.827 172.727 16.8667 172.821 16.9462C172.926 17.037 172.978 17.1959 172.978 17.423C172.978 17.65 172.92 17.8033 172.803 17.8828C172.698 17.9736 172.529 18.0247 172.296 18.036L171.438 18.0531C170.96 18.0531 170.569 18.0247 170.266 17.9679C169.963 17.9225 169.718 17.826 169.531 17.6784C169.356 17.5422 169.234 17.3492 169.164 17.0994C169.094 16.861 169.059 16.5545 169.059 16.1799V10.8668C169.059 10.583 169.105 10.3843 169.199 10.2708C169.304 10.1459 169.467 10.0721 169.689 10.0494C170.167 10.0154 170.406 10.2708 170.406 10.8157V16.1799ZM164.019 10.952C164.019 11.8715 163.949 12.6832 163.809 13.3871C163.681 14.091 163.465 14.7154 163.162 15.2603C162.87 15.8166 162.491 16.3104 162.025 16.7418C161.558 17.1846 160.992 17.6046 160.328 18.002C160.024 18.195 159.785 18.2801 159.61 18.2574C159.435 18.2461 159.284 18.1552 159.155 17.9849C159.039 17.8033 158.998 17.6217 159.033 17.44C159.079 17.2697 159.289 17.0711 159.663 16.844C160.269 16.4807 160.765 16.1174 161.15 15.7541C161.546 15.4022 161.856 15.0049 162.077 14.5621C162.311 14.1194 162.474 13.6142 162.567 13.0465C162.66 12.4675 162.713 11.7807 162.725 10.986C162.725 10.7249 162.789 10.5433 162.917 10.4411C163.045 10.3276 163.209 10.2708 163.407 10.2708C163.605 10.2708 163.757 10.3219 163.862 10.4241C163.967 10.5149 164.019 10.6908 164.019 10.952ZM167.134 17.457C167.134 17.6841 167.082 17.843 166.977 17.9339C166.872 18.036 166.708 18.0871 166.487 18.0871C166.253 18.0871 166.078 18.0417 165.962 17.9509C165.857 17.8714 165.804 17.7068 165.804 17.457V10.952C165.804 10.6341 165.857 10.4184 165.962 10.3049C166.078 10.1913 166.253 10.1346 166.487 10.1346C166.72 10.1346 166.883 10.197 166.977 10.3219C167.082 10.4354 167.134 10.6398 167.134 10.9349V17.457ZM160.94 12.4335C160.333 14.1932 159.359 15.8961 158.018 17.5422C157.855 17.7465 157.691 17.8657 157.528 17.8998C157.376 17.9452 157.201 17.8941 157.003 17.7465C156.828 17.6217 156.735 17.4741 156.723 17.3038C156.711 17.1335 156.828 16.9008 157.073 16.6056C157.61 15.9585 158.094 15.2546 158.525 14.494C158.969 13.7334 159.388 12.8592 159.785 11.8715C159.878 11.6104 159.995 11.4458 160.135 11.3777C160.275 11.3096 160.456 11.3096 160.677 11.3777C160.876 11.4345 160.998 11.5423 161.045 11.7012C161.092 11.8602 161.057 12.1043 160.94 12.4335ZM160.572 9.84507C160.304 10.197 159.937 10.18 159.47 9.79399C159.272 9.6237 159.074 9.47044 158.875 9.3342C158.689 9.19797 158.496 9.06742 158.298 8.94254C158.111 8.81766 157.913 8.69278 157.703 8.5679C157.505 8.44302 157.289 8.30679 157.056 8.1592C156.601 7.86403 156.484 7.55183 156.706 7.2226C156.834 7.01826 156.974 6.91041 157.125 6.89905C157.289 6.87635 157.481 6.92743 157.703 7.05231C158.239 7.38154 158.706 7.67104 159.103 7.92079C159.499 8.17055 159.896 8.45437 160.293 8.77225C160.561 8.9993 160.707 9.1923 160.73 9.35123C160.753 9.49882 160.701 9.66343 160.572 9.84507ZM161.045 5.36644C160.8 5.69567 160.438 5.67296 159.96 5.29832C159.552 4.98045 159.132 4.68528 158.7 4.41281C158.269 4.14035 157.878 3.90194 157.528 3.6976C157.295 3.56136 157.16 3.41378 157.125 3.25484C157.102 3.08455 157.155 2.91426 157.283 2.74397C157.505 2.42609 157.849 2.40339 158.315 2.67585C158.805 2.97102 159.237 3.23781 159.61 3.47622C159.995 3.70327 160.392 3.97574 160.8 4.29361C161.255 4.63419 161.337 4.9918 161.045 5.36644Z" fill="white"/>
</svg>
