<svg width="269" height="60" viewBox="0 0 269 60" fill="none" xmlns="http://www.w3.org/2000/svg">
<path d="M1.98809 36.283C1.98809 36.5672 1.90421 36.8013 1.73644 36.9853C1.56866 37.1859 1.31701 37.2863 0.981464 37.2863C0.64592 37.2863 0.394263 37.1859 0.226492 36.9853C0.0754972 36.8013 0 36.5672 0 36.283V20.5818C0 20.2975 0.05872 20.0634 0.17616 19.8795C0.310377 19.6956 0.545258 19.6036 0.880801 19.6036C1.14924 19.6036 1.35895 19.6788 1.50994 19.8293C1.66094 19.9798 1.81193 20.147 1.96293 20.331L10.9974 33.4989V20.5818C10.9974 20.2975 11.0645 20.0634 11.1988 19.8795C11.3497 19.6956 11.6098 19.6036 11.9789 19.6036C12.348 19.6036 12.608 19.6872 12.759 19.8544C12.91 20.0216 12.9855 20.2641 12.9855 20.5818V36.3081C12.9855 36.5923 12.9184 36.8264 12.7842 37.0104C12.6668 37.1943 12.4403 37.2863 12.1047 37.2863C11.8698 37.2863 11.6601 37.211 11.4756 37.0605C11.3078 36.9268 11.1484 36.7512 10.9974 36.5338L1.98809 23.5916V36.283Z" fill="#1B2A74"/>
<path d="M25.3171 29.837C25.3171 29.3019 25.2668 28.7668 25.1661 28.2317C25.0822 27.6799 24.9145 27.1867 24.6628 26.7519C24.4112 26.3004 24.0588 25.9409 23.6059 25.6734C23.1696 25.3891 22.6076 25.247 21.9197 25.247C21.1816 25.247 20.5692 25.4059 20.0826 25.7236C19.6129 26.0413 19.2354 26.4342 18.9502 26.9024C18.665 27.3539 18.4637 27.8471 18.3462 28.3822C18.2288 28.9173 18.1701 29.4022 18.1701 29.837H25.3171ZM21.9952 37.5371C21.0222 37.5371 20.1749 37.3531 19.4535 36.9853C18.7321 36.6174 18.1281 36.1241 17.6416 35.5055C17.1718 34.87 16.8195 34.1343 16.5846 33.2983C16.3497 32.4622 16.2323 31.576 16.2323 30.6396C16.2323 29.7032 16.3497 28.8086 16.5846 27.9558C16.8363 27.1031 17.197 26.3506 17.6667 25.6985C18.1533 25.0463 18.7573 24.528 19.4787 24.1434C20.2001 23.7588 21.0389 23.5665 21.9952 23.5665C22.9012 23.5665 23.6813 23.7337 24.3357 24.0682C24.99 24.4026 25.5184 24.8457 25.9211 25.3975C26.3405 25.9493 26.6509 26.5931 26.8522 27.3288C27.0536 28.0478 27.1542 28.8086 27.1542 29.6112C27.1542 30.2299 27.0703 30.673 26.9026 30.9406C26.7516 31.1914 26.458 31.3168 26.0218 31.3168H18.1701C18.1533 31.8519 18.2288 32.3869 18.3965 32.922C18.5643 33.4571 18.8076 33.942 19.1264 34.3768C19.4619 34.8115 19.8729 35.171 20.3595 35.4553C20.846 35.7228 21.408 35.8566 22.0456 35.8566C22.8677 35.8566 23.5555 35.7479 24.1092 35.5305C24.6796 35.2964 25.1745 34.9369 25.5939 34.452C25.7617 34.2681 25.9211 34.1594 26.0721 34.126C26.2231 34.0758 26.3573 34.0674 26.4747 34.1009C26.5922 34.1343 26.6845 34.2012 26.7516 34.3015C26.8355 34.3851 26.8942 34.4687 26.9277 34.5523C27.0452 34.753 27.02 35.0205 26.8522 35.355C26.7012 35.6894 26.4076 36.0238 25.9714 36.3582C25.552 36.6759 25.0067 36.9518 24.3357 37.1859C23.6646 37.42 22.8844 37.5371 21.9952 37.5371Z" fill="#1B2A74"/>
<path d="M33.4702 34.2514L36.4398 24.7704C36.5572 24.4193 36.6914 24.1685 36.8424 24.018C36.9934 23.8675 37.1864 23.7923 37.4212 23.7923C37.6561 23.7923 37.8491 23.8675 38.0001 24.018C38.1511 24.1685 38.2853 24.4193 38.4027 24.7704L41.4478 34.2263L44.4173 24.7203C44.6019 24.1016 44.9374 23.7923 45.424 23.7923C45.7595 23.7923 45.986 23.8591 46.1034 23.9929C46.2209 24.1267 46.288 24.2855 46.3048 24.4695C46.3215 24.6534 46.2712 24.9377 46.1538 25.3222C46.0363 25.6901 45.9273 26.0162 45.8266 26.3004L42.5299 36.2328C42.3957 36.584 42.2447 36.8431 42.0769 37.0104C41.9091 37.1943 41.6826 37.2863 41.3974 37.2863C41.0451 37.2863 40.7767 37.1776 40.5921 36.9602C40.4244 36.7428 40.2985 36.4669 40.2146 36.1325L37.4212 27.0278L34.8795 35.2296C34.695 35.8148 34.5104 36.3081 34.3259 36.7094C34.1581 37.094 33.8729 37.2863 33.4702 37.2863C33.2186 37.2863 33.0005 37.211 32.8159 37.0605C32.6314 36.91 32.472 36.6341 32.3378 36.2328L29.0411 26.3004C28.9572 26.0162 28.8565 25.6985 28.7391 25.3473C28.6216 24.9795 28.5713 24.7036 28.5881 24.5196C28.6049 24.319 28.672 24.1518 28.7894 24.018C28.9236 23.8675 29.1585 23.7923 29.494 23.7923C29.9638 23.7923 30.2826 24.0849 30.4503 24.6701L33.4702 34.2514Z" fill="#1B2A74"/>
<path d="M56.9827 29.837C56.9827 29.3019 56.9324 28.7668 56.8317 28.2317C56.7478 27.6799 56.58 27.1867 56.3284 26.7519C56.0767 26.3004 55.7244 25.9409 55.2714 25.6734C54.8352 25.3891 54.2732 25.247 53.5853 25.247C52.8471 25.247 52.2348 25.4059 51.7482 25.7236C51.2785 26.0413 50.901 26.4342 50.6158 26.9024C50.3305 27.3539 50.1292 27.8471 50.0118 28.3822C49.8943 28.9173 49.8356 29.4022 49.8356 29.837H56.9827ZM53.6608 37.5371C52.6877 37.5371 51.8405 37.3531 51.1191 36.9853C50.3977 36.6174 49.7937 36.1241 49.3071 35.5055C48.8374 34.87 48.4851 34.1343 48.2502 33.2983C48.0153 32.4622 47.8979 31.576 47.8979 30.6396C47.8979 29.7032 48.0153 28.8086 48.2502 27.9558C48.5018 27.1031 48.8626 26.3506 49.3323 25.6985C49.8188 25.0463 50.4228 24.528 51.1442 24.1434C51.8657 23.7588 52.7045 23.5665 53.6608 23.5665C54.5668 23.5665 55.3469 23.7337 56.0012 24.0682C56.6555 24.4026 57.184 24.8457 57.5867 25.3975C58.0061 25.9493 58.3165 26.5931 58.5178 27.3288C58.7191 28.0478 58.8198 28.8086 58.8198 29.6112C58.8198 30.2299 58.7359 30.673 58.5681 30.9406C58.4171 31.1914 58.1235 31.3168 57.6873 31.3168H49.8356C49.8188 31.8519 49.8943 32.3869 50.0621 32.922C50.2299 33.4571 50.4732 33.942 50.7919 34.3768C51.1275 34.8115 51.5385 35.171 52.025 35.4553C52.5116 35.7228 53.0736 35.8566 53.7111 35.8566C54.5332 35.8566 55.2211 35.7479 55.7747 35.5305C56.3452 35.2964 56.8401 34.9369 57.2595 34.452C57.4273 34.2681 57.5867 34.1594 57.7377 34.126C57.8887 34.0758 58.0229 34.0674 58.1403 34.1009C58.2578 34.1343 58.35 34.2012 58.4171 34.3015C58.501 34.3851 58.5597 34.4687 58.5933 34.5523C58.7107 34.753 58.6856 35.0205 58.5178 35.355C58.3668 35.6894 58.0732 36.0238 57.637 36.3582C57.2176 36.6759 56.6723 36.9518 56.0012 37.1859C55.3301 37.42 54.55 37.5371 53.6608 37.5371Z" fill="#1B2A74"/>
<path d="M71.2007 30.6145C71.2007 29.8119 71.1169 29.0929 70.9491 28.4575C70.7981 27.8053 70.5548 27.2452 70.2193 26.777C69.8837 26.3088 69.4643 25.9577 68.961 25.7236C68.4577 25.4727 67.8705 25.3473 67.1994 25.3473C66.5954 25.3473 66.0585 25.4895 65.5888 25.7737C65.1358 26.0413 64.7499 26.4175 64.4312 26.9024C64.1124 27.3873 63.8691 27.9558 63.7014 28.608C63.5336 29.2434 63.4497 29.9206 63.4497 30.6396C63.4497 31.3586 63.5252 32.0274 63.6762 32.6461C63.8272 33.2648 64.0537 33.8083 64.3557 34.2764C64.6576 34.7279 65.0351 35.0874 65.4881 35.355C65.9579 35.6058 66.5115 35.7312 67.1491 35.7312C68.4241 35.7312 69.414 35.2797 70.1186 34.3768C70.8232 33.4738 71.184 32.2197 71.2007 30.6145ZM63.5252 36.283C63.5252 36.5505 63.4497 36.7846 63.2987 36.9853C63.1477 37.1859 62.8877 37.2779 62.5186 37.2612C62.1495 37.2612 61.8894 37.1609 61.7384 36.9602C61.6042 36.7763 61.5371 36.5505 61.5371 36.283V19.5033C61.5371 19.2357 61.6126 19.0016 61.7636 18.801C61.9146 18.6003 62.1578 18.5 62.4934 18.5C62.8289 18.5 63.0722 18.6003 63.2232 18.801C63.391 19.0016 63.4749 19.2357 63.4749 19.5033V26.6265C63.8272 25.7737 64.3557 25.0631 65.0603 24.4945C65.7817 23.926 66.6457 23.6334 67.6524 23.6167C68.3738 23.6167 69.07 23.7505 69.7411 24.018C70.4122 24.2688 70.9994 24.6785 71.5027 25.247C72.0228 25.8155 72.4339 26.5429 72.7358 27.4291C73.0378 28.3153 73.1888 29.3771 73.1888 30.6145C73.1888 31.6345 73.0546 32.5625 72.7862 33.3986C72.5177 34.2346 72.1403 34.9537 71.6537 35.5556C71.184 36.1409 70.6135 36.6007 69.9425 36.9351C69.2714 37.2528 68.5416 37.4117 67.753 37.4117C66.7464 37.4117 65.8908 37.1776 65.1861 36.7094C64.4815 36.2412 63.9278 35.5723 63.5252 34.7028V36.283Z" fill="#1B2A74"/>
<path d="M75.7479 21.0834C75.7479 20.5985 75.8318 20.2808 75.9995 20.1303C76.1841 19.9631 76.5783 19.8795 77.1823 19.8795H81.1585C83.0543 19.8795 84.4552 20.3059 85.3612 21.1587C86.2672 21.9947 86.7201 23.3241 86.7201 25.1467C86.7201 28.725 84.8663 30.5142 81.1585 30.5142H77.736V36.283C77.736 36.6007 77.6605 36.8431 77.5095 37.0104C77.3585 37.1943 77.1068 37.2863 76.7545 37.2863C76.3854 37.2863 76.1254 37.1859 75.9744 36.9853C75.8234 36.8013 75.7479 36.5672 75.7479 36.283V21.0834ZM77.736 28.8086H81.1585C82.4503 28.8086 83.3731 28.516 83.9267 27.9308C84.4804 27.3455 84.7572 26.4258 84.7572 25.1718C84.7572 23.9177 84.4468 23.0147 83.8261 22.4629C83.2053 21.9111 82.3161 21.6352 81.1585 21.6352H77.736V28.8086Z" fill="#1B2A74"/>
<path d="M90.8963 30.6145C90.913 32.2197 91.2738 33.4738 91.9784 34.3768C92.683 35.2797 93.6729 35.7312 94.9479 35.7312C95.5855 35.7312 96.1307 35.6058 96.5837 35.355C97.0535 35.0874 97.4394 34.7279 97.7413 34.2764C98.0433 33.8083 98.2698 33.2648 98.4208 32.6461C98.5718 32.0274 98.6473 31.3586 98.6473 30.6396C98.6473 29.9206 98.5634 29.2434 98.3957 28.608C98.2279 27.9558 97.9846 27.3957 97.6658 26.9275C97.3471 26.4426 96.9528 26.058 96.4831 25.7737C96.0301 25.4895 95.5016 25.3473 94.8976 25.3473C94.2098 25.3473 93.6142 25.4727 93.1108 25.7236C92.6243 25.9577 92.2133 26.3088 91.8777 26.777C91.5422 27.2452 91.2905 27.8053 91.1228 28.4575C90.9718 29.0929 90.8963 29.8119 90.8963 30.6145ZM98.5718 34.7028C98.1692 35.5723 97.6323 36.2412 96.9612 36.7094C96.3069 37.1776 95.468 37.4117 94.4446 37.4117C93.6226 37.4117 92.8676 37.2528 92.1797 36.9351C91.5086 36.6007 90.9298 36.1409 90.4433 35.5556C89.9567 34.9537 89.5793 34.2346 89.3108 33.3986C89.0424 32.5625 88.9082 31.6345 88.9082 30.6145C88.9082 29.3771 89.0592 28.3153 89.3612 27.4291C89.6799 26.5429 90.091 25.8155 90.5943 25.247C91.1144 24.6785 91.7184 24.2688 92.4062 24.018C93.0941 23.7505 93.8155 23.6167 94.5705 23.6167C95.5771 23.6334 96.4243 23.926 97.1122 24.4945C97.8001 25.0631 98.3034 25.7737 98.6221 26.6265V24.7955C98.6221 24.528 98.6976 24.2939 98.8486 24.0932C99.0164 23.8926 99.2681 23.7923 99.6036 23.7923C99.9391 23.809 100.182 23.9177 100.333 24.1183C100.484 24.3023 100.56 24.528 100.56 24.7955V36.2579C100.56 36.5254 100.484 36.7512 100.333 36.9351C100.199 37.1358 99.9475 37.2445 99.5784 37.2612C99.2093 37.2612 98.9493 37.1609 98.7983 36.9602C98.6473 36.7595 98.5718 36.5254 98.5718 36.2579V34.7028Z" fill="#1B2A74"/>
<path d="M112.113 34.0507C111.794 34.8032 111.299 35.4386 110.628 35.9569C109.957 36.4753 109.118 36.7345 108.111 36.7345C107.49 36.7345 106.895 36.6425 106.324 36.4586C105.754 36.2746 105.251 35.9987 104.814 35.6309C104.395 35.2463 104.051 34.7614 103.783 34.1761C103.531 33.5909 103.405 32.8969 103.405 32.0943V24.6952C103.405 24.0932 103.716 23.7923 104.336 23.7923C104.991 23.7923 105.318 24.0932 105.318 24.6952V31.3419C105.318 32.6796 105.603 33.6243 106.173 34.1761C106.744 34.7279 107.532 35.0038 108.539 35.0038C108.958 35.0038 109.378 34.9286 109.797 34.7781C110.234 34.6276 110.619 34.4019 110.955 34.1009C111.29 33.7832 111.559 33.3819 111.76 32.8969C111.978 32.3953 112.087 31.7933 112.087 31.0911V24.6952C112.087 24.0932 112.406 23.7923 113.044 23.7923C113.329 23.7923 113.555 23.8759 113.723 24.0431C113.908 24.2103 114 24.4277 114 24.6952V36.584C114 37.3197 113.857 37.9885 113.572 38.5905C113.287 39.1925 112.884 39.7108 112.364 40.1456C111.844 40.5803 111.207 40.9148 110.452 41.1489C109.713 41.3829 108.883 41.5 107.96 41.5C107.004 41.4833 106.19 41.3579 105.519 41.1238C104.865 40.8897 104.227 40.5385 103.607 40.0703C103.372 39.8864 103.237 39.6774 103.204 39.4433C103.17 39.2092 103.196 38.9667 103.279 38.7159C103.38 38.4651 103.539 38.323 103.758 38.2895C103.992 38.2728 104.227 38.3815 104.462 38.6156C104.865 38.9667 105.377 39.2426 105.997 39.4433C106.618 39.6607 107.306 39.761 108.061 39.7443C109.269 39.7108 110.242 39.4098 110.98 38.8413C111.735 38.2895 112.113 37.5371 112.113 36.584V34.0507Z" fill="#1B2A74"/>
<path d="M138.217 38.0271C138.217 38.2491 138.156 38.4188 138.035 38.5363C137.928 38.6538 137.74 38.7125 137.472 38.7125H119.724C119.443 38.7125 119.248 38.6538 119.141 38.5363C119.047 38.4188 119 38.2491 119 38.0271C119 37.8182 119.04 37.6485 119.121 37.518C119.215 37.4005 119.416 37.3417 119.724 37.3417H121.113V35.638C121.113 35.0113 121.254 34.5739 121.535 34.3259C121.817 34.0778 122.28 33.9538 122.924 33.9538H134.373C135.057 33.9538 135.534 34.0778 135.802 34.3259C136.07 34.5739 136.204 35.0113 136.204 35.638V37.3417H137.472C137.767 37.3417 137.962 37.4005 138.056 37.518C138.163 37.6485 138.217 37.8182 138.217 38.0271ZM129.262 29.4104C129.262 29.6846 129.235 29.9065 129.182 30.0763C129.128 30.246 129.034 30.3831 128.9 30.4875C128.779 30.5789 128.605 30.6442 128.377 30.6834C128.149 30.7095 127.867 30.7225 127.532 30.7225H126.063V31.8975H128.719C128.947 31.8975 129.135 31.9302 129.282 31.9954C129.443 32.0607 129.537 32.2239 129.564 32.485C129.564 32.707 129.484 32.8702 129.323 32.9746C129.175 33.066 128.974 33.1117 128.719 33.1117H122.22C121.844 33.1117 121.535 33.0986 121.294 33.0725C121.066 33.0334 120.885 32.9681 120.751 32.8767C120.616 32.7722 120.523 32.6417 120.469 32.485C120.429 32.3153 120.409 32.0934 120.409 31.8192V26.375C120.409 26.127 120.429 25.9246 120.469 25.7679C120.509 25.5982 120.59 25.4677 120.71 25.3763C120.845 25.2849 121.032 25.2261 121.274 25.2C121.515 25.1608 121.83 25.1413 122.22 25.1413H128.679C128.934 25.1413 129.135 25.187 129.282 25.2783C129.43 25.3567 129.504 25.5068 129.504 25.7288C129.504 26.016 129.43 26.1922 129.282 26.2575C129.135 26.3228 128.934 26.3554 128.679 26.3554H126.143V27.3542H127.532C127.867 27.3542 128.142 27.3738 128.357 27.4129C128.585 27.4521 128.766 27.5239 128.9 27.6283C129.034 27.7328 129.128 27.8829 129.182 28.0788C129.235 28.2615 129.262 28.4965 129.262 28.7838V29.4104ZM125.6 24.1229C125.6 24.619 125.332 24.8671 124.795 24.8671C124.58 24.8671 124.406 24.8083 124.272 24.6908C124.138 24.5733 124.071 24.384 124.071 24.1229V23.5942H119.905C119.436 23.5942 119.201 23.3657 119.201 22.9088C119.201 22.3865 119.436 22.1254 119.905 22.1254H124.071V21.2833C124.071 21.0222 124.138 20.8329 124.272 20.7154C124.406 20.5979 124.58 20.5392 124.795 20.5392C125.332 20.5392 125.6 20.7872 125.6 21.2833V22.1254H127.894C128.363 22.1254 128.598 22.3865 128.598 22.9088C128.598 23.1568 128.531 23.3331 128.397 23.4375C128.276 23.542 128.109 23.5942 127.894 23.5942H125.6V24.1229ZM131.858 21.2833C131.858 20.7872 132.113 20.5392 132.623 20.5392C132.851 20.5392 133.038 20.5979 133.186 20.7154C133.334 20.8329 133.407 21.0222 133.407 21.2833V22.1254H137.613C138.082 22.1254 138.317 22.3865 138.317 22.9088C138.317 23.1568 138.25 23.3331 138.116 23.4375C137.995 23.542 137.827 23.5942 137.613 23.5942H133.407V24.1817C133.407 24.4036 133.334 24.5799 133.186 24.7104C133.038 24.841 132.851 24.9063 132.623 24.9063C132.381 24.9063 132.193 24.841 132.059 24.7104C131.925 24.5799 131.858 24.4036 131.858 24.1817V23.5942H129.806C129.336 23.5942 129.101 23.3657 129.101 22.9088C129.101 22.3865 129.336 22.1254 129.806 22.1254H131.858V21.2833ZM132.321 26.0029C132.281 26.1857 132.24 26.362 132.2 26.5317C132.16 26.7014 132.113 26.8711 132.059 27.0408H136.989C137.244 27.0408 137.445 27.08 137.593 27.1583C137.754 27.2236 137.834 27.3868 137.834 27.6479C137.834 27.896 137.76 28.0722 137.613 28.1767C137.465 28.2681 137.257 28.3138 136.989 28.3138H131.697C131.657 28.4574 131.61 28.5879 131.556 28.7054C131.516 28.8229 131.469 28.947 131.415 29.0775C131.375 29.2081 131.321 29.3517 131.254 29.5084C131.187 29.665 131.107 29.8543 131.013 30.0763C130.865 30.3765 130.691 30.5724 130.49 30.6638C130.302 30.7552 130.114 30.7486 129.926 30.6442C129.712 30.5528 129.584 30.4157 129.544 30.2329C129.504 30.0502 129.564 29.776 129.725 29.4104C129.926 28.9665 130.081 28.601 130.188 28.3138C130.309 28.0265 130.402 27.7589 130.47 27.5108C130.55 27.2628 130.617 27.0082 130.671 26.7471C130.738 26.4729 130.818 26.127 130.912 25.7092C130.993 25.3697 131.093 25.1347 131.214 25.0042C131.348 24.8736 131.556 24.841 131.838 24.9063C132.106 24.9585 132.274 25.0695 132.341 25.2392C132.408 25.3958 132.401 25.6504 132.321 26.0029ZM136.043 31.2709C136.352 31.2709 136.587 31.31 136.748 31.3884C136.909 31.4667 136.989 31.6495 136.989 31.9367C136.989 32.1978 136.895 32.3741 136.707 32.4654C136.533 32.5568 136.312 32.6025 136.043 32.6025H131.456C131.187 32.6025 130.979 32.5568 130.832 32.4654C130.684 32.361 130.61 32.1782 130.61 31.9171C130.61 31.6429 130.691 31.4667 130.852 31.3884C131.026 31.31 131.241 31.2709 131.496 31.2709H136.043ZM131.596 35.2659V37.3417H134.655V35.54C134.655 35.3573 134.561 35.2659 134.373 35.2659H131.596ZM127.129 37.3417H130.107V35.2659H127.129V37.3417ZM122.662 37.3417H125.64V35.2659H122.924C122.749 35.2659 122.662 35.3573 122.662 35.54V37.3417ZM121.857 28.5488V29.5475H127.532C127.706 29.5475 127.793 29.5018 127.793 29.4104V28.7054C127.793 28.601 127.706 28.5488 127.532 28.5488H121.857ZM124.654 31.8975V30.7225H121.857V31.5842C121.857 31.7017 121.877 31.7866 121.918 31.8388C121.971 31.8779 122.072 31.8975 122.22 31.8975H124.654ZM121.857 27.3542H124.735V26.3554H122.22C121.978 26.3554 121.857 26.4664 121.857 26.6883V27.3542Z" fill="#1B2A74"/>
<path d="M151.96 29.7042C151.96 30.9184 151.906 31.9824 151.799 32.8963C151.692 33.8102 151.524 34.6196 151.296 35.3246C151.081 36.0296 150.799 36.6563 150.451 37.2046C150.115 37.753 149.713 38.2621 149.243 38.7321C148.693 39.2805 148.231 39.3196 147.855 38.8496C147.681 38.6277 147.62 38.4188 147.674 38.223C147.741 38.0402 147.882 37.8443 148.096 37.6355C148.861 36.9043 149.438 36.01 149.827 34.9525C150.216 33.895 150.41 32.5764 150.41 30.9967V24.2404C150.41 23.8618 150.431 23.5485 150.471 23.3004C150.524 23.0524 150.598 22.8565 150.692 22.7129C150.786 22.5563 150.907 22.4453 151.054 22.38C151.215 22.3147 151.403 22.269 151.618 22.2429C152.423 22.1515 153.248 22.021 154.093 21.8513C154.951 21.6685 155.723 21.4465 156.407 21.1854C156.769 21.0418 157.071 20.9961 157.312 21.0483C157.567 21.1006 157.728 21.2638 157.795 21.5379C157.862 21.8121 157.835 22.021 157.715 22.1646C157.607 22.2951 157.399 22.4192 157.091 22.5367C156.742 22.6542 156.367 22.7717 155.964 22.8892C155.575 22.9936 155.173 23.0915 154.757 23.1829C154.341 23.2613 153.932 23.3396 153.529 23.4179C153.14 23.4832 152.785 23.5354 152.463 23.5746C152.248 23.6007 152.107 23.6464 152.04 23.7117C151.987 23.777 151.96 23.8879 151.96 24.0446V26.9429H158.037C158.332 26.9429 158.526 27.0017 158.62 27.1192C158.728 27.2367 158.781 27.4195 158.781 27.6675C158.781 27.9417 158.728 28.1375 158.62 28.255C158.526 28.3725 158.332 28.4313 158.037 28.4313H156.145V38.7125C156.145 38.9998 156.071 39.2021 155.924 39.3196C155.79 39.4371 155.615 39.4959 155.401 39.4959C155.132 39.4959 154.931 39.4371 154.797 39.3196C154.676 39.2021 154.616 38.9998 154.616 38.7125V28.4313H151.96V29.7042ZM140.148 28.7446C139.88 28.7446 139.685 28.6859 139.565 28.5684C139.457 28.4509 139.404 28.2681 139.404 28.02C139.404 27.7589 139.451 27.5696 139.545 27.4521C139.652 27.3346 139.853 27.2758 140.148 27.2758H142.221C142.221 27.2497 142.214 27.2302 142.201 27.2171C142.201 27.191 142.201 27.1649 142.201 27.1388C142.12 26.8254 142.013 26.4925 141.879 26.14C141.758 25.7875 141.637 25.4611 141.517 25.1608C141.436 24.9389 141.396 24.7365 141.396 24.5538C141.396 24.3579 141.53 24.2078 141.798 24.1033C142.013 24.012 142.207 23.9989 142.382 24.0642C142.556 24.1164 142.717 24.3057 142.865 24.6321C142.959 24.854 143.059 25.1217 143.167 25.435C143.274 25.7483 143.415 26.1596 143.589 26.6688C143.67 26.956 143.703 27.1583 143.69 27.2758H146.145C146.319 26.8972 146.487 26.499 146.648 26.0813C146.809 25.6504 146.923 25.2849 146.99 24.9846C147.084 24.606 147.204 24.3449 147.352 24.2013C147.499 24.0446 147.727 24.0054 148.036 24.0838C148.318 24.149 148.492 24.2861 148.559 24.495C148.64 24.7039 148.606 25.0107 148.459 25.4154C148.378 25.6374 148.271 25.9115 148.137 26.2379C148.016 26.5643 147.882 26.9103 147.734 27.2758H149.485C149.78 27.2758 149.974 27.3346 150.068 27.4521C150.176 27.5696 150.229 27.7589 150.229 28.02C150.229 28.2681 150.169 28.4509 150.048 28.5684C149.941 28.6859 149.753 28.7446 149.485 28.7446H145.621V30.7029H148.801C149.082 30.7029 149.27 30.7617 149.364 30.8792C149.471 30.9967 149.525 31.1795 149.525 31.4275C149.525 31.6756 149.471 31.8584 149.364 31.9759C149.27 32.0934 149.082 32.1521 148.801 32.1521H145.621V38.2817C145.621 38.595 145.574 38.8105 145.481 38.928C145.4 39.0455 145.199 39.1042 144.877 39.1042C144.622 39.1042 144.441 39.0585 144.334 38.9671C144.226 38.8888 144.173 38.6603 144.173 38.2817V32.1521H140.852C140.584 32.1521 140.39 32.0934 140.269 31.9759C140.162 31.8584 140.108 31.6756 140.108 31.4275C140.108 31.1795 140.162 30.9967 140.269 30.8792C140.39 30.7617 140.584 30.7029 140.852 30.7029H144.173V28.7446H140.148ZM148.901 22.4583C149.17 22.4583 149.357 22.5171 149.465 22.6346C149.585 22.7521 149.646 22.9414 149.646 23.2025C149.646 23.4506 149.585 23.6333 149.465 23.7508C149.357 23.8683 149.17 23.9271 148.901 23.9271H140.893C140.356 23.9271 140.088 23.679 140.088 23.1829C140.088 22.9349 140.142 22.7521 140.249 22.6346C140.37 22.5171 140.571 22.4583 140.852 22.4583H144.253C144.199 22.3147 144.146 22.1711 144.092 22.0275C144.038 21.8839 143.985 21.7468 143.931 21.6163C143.703 21.0288 143.871 20.6632 144.434 20.5196C144.89 20.4282 145.232 20.6567 145.46 21.205C145.554 21.4139 145.628 21.6228 145.682 21.8317C145.749 22.0406 145.809 22.2494 145.863 22.4583H148.901ZM142.744 32.5438C143.254 32.6482 143.395 33.0334 143.167 33.6992C142.885 34.4956 142.59 35.1875 142.281 35.775C141.986 36.3625 141.657 36.937 141.295 37.4984C141.081 37.8117 140.873 38.0075 140.671 38.0859C140.47 38.1642 140.282 38.1381 140.108 38.0075C139.907 37.8639 139.793 37.7007 139.766 37.518C139.739 37.3352 139.82 37.1002 140.007 36.813C140.356 36.2516 140.665 35.6902 140.933 35.1288C141.215 34.5674 141.47 33.9473 141.698 33.2684C141.818 32.9289 141.952 32.707 142.1 32.6025C142.261 32.4981 142.476 32.4785 142.744 32.5438ZM148.64 36.1275C148.734 36.4539 148.74 36.6955 148.66 36.8521C148.579 37.0088 148.405 37.1263 148.137 37.2046C147.855 37.283 147.64 37.2634 147.493 37.1459C147.359 37.0414 147.258 36.8586 147.191 36.5975C147.084 36.1275 146.949 35.638 146.788 35.1288C146.641 34.6196 146.48 34.1104 146.306 33.6013C146.185 33.2618 146.158 33.0138 146.225 32.8571C146.292 32.7004 146.446 32.5829 146.688 32.5046C146.943 32.4263 147.144 32.4263 147.292 32.5046C147.439 32.5699 147.587 32.7918 147.734 33.1704C147.882 33.5882 148.023 34.0191 148.157 34.4629C148.291 34.8938 148.452 35.4486 148.64 36.1275Z" fill="#1B2A74"/>
<path d="M168.46 30.4875V28.0984H163.128C162.51 28.0984 162.202 27.8503 162.202 27.3542C162.202 27.1453 162.262 26.9821 162.383 26.8646C161.94 27.0865 161.511 27.2824 161.095 27.4521C160.626 27.6479 160.277 27.7132 160.049 27.6479C159.821 27.5696 159.673 27.3868 159.606 27.0996C159.539 26.8907 159.566 26.6883 159.687 26.4925C159.821 26.2967 160.076 26.127 160.451 25.9833C161.712 25.5003 162.967 24.8475 164.214 24.025C165.475 23.1895 166.736 22.1907 167.997 21.0288C168.158 20.8851 168.326 20.7807 168.5 20.7154C168.674 20.6501 168.856 20.6175 169.043 20.6175C169.473 20.6175 169.862 20.7676 170.21 21.0679C171.512 22.2038 172.853 23.209 174.235 24.0838C175.617 24.9585 176.998 25.6113 178.38 26.0421C178.581 26.1074 178.762 26.2379 178.923 26.4338C179.084 26.6165 179.111 26.8515 179.004 27.1388C178.896 27.4129 178.735 27.5696 178.521 27.6088C178.32 27.6349 178.078 27.6153 177.796 27.55C177.045 27.2758 176.294 26.9429 175.543 26.5513C174.792 26.1596 174.054 25.7418 173.329 25.2979C172.618 24.841 171.934 24.3645 171.277 23.8683C170.62 23.3592 170.009 22.85 169.446 22.3408C169.178 22.1189 168.923 22.1254 168.681 22.3604C167.729 23.209 166.783 23.9924 165.844 24.7104C164.918 25.4285 163.892 26.0813 162.765 26.6688C162.899 26.6427 163.02 26.6296 163.128 26.6296H175.201C175.482 26.6296 175.704 26.6883 175.865 26.8058C176.039 26.9233 176.126 27.1061 176.126 27.3542C176.126 27.6022 176.039 27.7915 175.865 27.9221C175.704 28.0396 175.482 28.0984 175.201 28.0984H170.049V30.4875H176.971C177.589 30.4875 177.897 30.7356 177.897 31.2317C177.897 31.4797 177.81 31.6625 177.635 31.78C177.475 31.8975 177.253 31.9563 176.971 31.9563H170.049V37.3417H172.182C171.928 37.0284 171.988 36.6302 172.364 36.1471C172.779 35.5988 173.135 35.0831 173.43 34.6C173.739 34.117 174.047 33.5686 174.356 32.955C174.503 32.6678 174.651 32.472 174.798 32.3675C174.946 32.25 175.147 32.2435 175.402 32.3479C175.71 32.4654 175.878 32.6352 175.905 32.8571C175.932 33.066 175.871 33.3141 175.724 33.6013C175.375 34.2671 175.013 34.8938 174.637 35.4813C174.275 36.0688 173.906 36.6171 173.531 37.1263C173.504 37.1655 173.47 37.2046 173.43 37.2438C173.39 37.283 173.356 37.3156 173.329 37.3417H177.897C178.501 37.3417 178.803 37.5898 178.803 38.0859C178.803 38.3209 178.715 38.5037 178.541 38.6342C178.38 38.7778 178.165 38.8496 177.897 38.8496H160.572C160.304 38.8496 160.089 38.7778 159.928 38.6342C159.781 38.5037 159.707 38.3209 159.707 38.0859C159.707 37.5898 159.995 37.3417 160.572 37.3417H164.596C164.516 37.2111 164.442 37.048 164.375 36.8521C164.268 36.5257 164.154 36.2189 164.033 35.9317C163.926 35.6575 163.812 35.3964 163.691 35.1484C163.584 34.8873 163.463 34.6261 163.329 34.365C163.195 34.1039 163.054 33.8232 162.906 33.5229C162.732 33.1835 162.645 32.9289 162.645 32.7592C162.658 32.5895 162.779 32.4132 163.007 32.2304C163.221 32.0868 163.436 32.0477 163.651 32.1129C163.879 32.1652 164.087 32.361 164.274 32.7004C164.435 33.0007 164.576 33.2879 164.697 33.5621C164.831 33.8232 164.959 34.0974 165.079 34.3846C165.2 34.6718 165.321 34.9786 165.442 35.305C165.562 35.6184 165.69 35.9643 165.824 36.343C165.985 36.7999 165.985 37.1328 165.824 37.3417H168.46V31.9563H161.598C161.021 31.9563 160.733 31.7147 160.733 31.2317C160.733 30.7356 161.021 30.4875 161.598 30.4875H168.46Z" fill="#1B2A74"/>
<path d="M186.207 24.1817C185.899 24.1817 185.698 24.1164 185.604 23.9858C185.523 23.8553 185.483 23.679 185.483 23.4571C185.483 23.2351 185.523 23.0589 185.604 22.9283C185.698 22.7847 185.899 22.7129 186.207 22.7129H190.594C190.795 22.4649 190.983 22.2233 191.157 21.9883C191.345 21.7403 191.526 21.5053 191.701 21.2833C191.875 21.0614 192.05 20.9113 192.224 20.8329C192.412 20.7546 192.613 20.7676 192.828 20.8721C193.029 20.9765 193.156 21.1463 193.21 21.3813C193.264 21.6032 193.19 21.8382 192.989 22.0863C192.895 22.1907 192.807 22.2951 192.727 22.3996C192.646 22.504 192.566 22.6085 192.486 22.7129H198.24C198.536 22.7129 198.73 22.7847 198.824 22.9283C198.931 23.0589 198.985 23.2351 198.985 23.4571C198.985 23.679 198.931 23.8553 198.824 23.9858C198.73 24.1164 198.536 24.1817 198.24 24.1817H191.298C190.668 24.9911 190.071 25.7157 189.507 26.3554C188.957 26.9952 188.394 27.6153 187.817 28.2159C187.696 28.3334 187.656 28.4247 187.696 28.49C187.75 28.5553 187.871 28.5814 188.059 28.5684C189.4 28.5031 190.708 28.4509 191.982 28.4117C193.257 28.3725 194.565 28.3268 195.906 28.2746C195.678 27.896 195.423 27.5174 195.142 27.1388C194.86 26.7471 194.565 26.3489 194.256 25.9442C193.948 25.5264 193.961 25.1674 194.296 24.8671C194.457 24.7235 194.665 24.6778 194.92 24.73C195.175 24.7822 195.396 24.9389 195.584 25.2C195.946 25.67 196.268 26.1008 196.55 26.4925C196.845 26.8711 197.114 27.2563 197.355 27.6479C197.61 28.0396 197.858 28.4509 198.1 28.8817C198.341 29.3125 198.596 29.8086 198.864 30.37C198.985 30.6181 199.025 30.8531 198.985 31.075C198.958 31.297 198.837 31.4602 198.623 31.5646C198.381 31.7082 198.16 31.7278 197.959 31.6234C197.771 31.5059 197.61 31.3166 197.476 31.0554C197.355 30.7943 197.228 30.5463 197.093 30.3113C196.973 30.0763 196.852 29.8478 196.731 29.6259L186.409 30.0371C186.087 30.024 185.825 29.9522 185.624 29.8217C185.423 29.6781 185.322 29.4888 185.322 29.2538C185.322 29.0971 185.362 28.9274 185.443 28.7446C185.537 28.5488 185.698 28.3529 185.926 28.1571C186.489 27.6479 187.079 27.0474 187.696 26.3554C188.327 25.6504 188.924 24.9258 189.487 24.1817H186.207ZM195.967 37.1067C195.967 37.2111 195.973 37.3025 195.987 37.3809C196.014 37.4723 196.061 37.5506 196.128 37.6159C196.195 37.6942 196.289 37.753 196.409 37.7921C196.53 37.8313 196.698 37.8509 196.912 37.8509H198.14C198.435 37.8509 198.636 37.8966 198.743 37.988C198.864 38.0924 198.925 38.2752 198.925 38.5363C198.925 38.7974 198.857 38.9737 198.723 39.065C198.603 39.1695 198.408 39.2282 198.14 39.2413L197.154 39.2609C196.604 39.2609 196.154 39.2282 195.806 39.163C195.457 39.1107 195.175 38.9998 194.961 38.83C194.759 38.6734 194.618 38.4514 194.538 38.1642C194.457 37.89 194.417 37.5375 194.417 37.1067V30.9967C194.417 30.6703 194.471 30.4418 194.578 30.3113C194.699 30.1677 194.887 30.0828 195.142 30.0567C195.692 30.0175 195.967 30.3113 195.967 30.9379V37.1067ZM188.622 31.0946C188.622 32.1521 188.542 33.0856 188.381 33.895C188.233 34.7045 187.985 35.4225 187.636 36.0492C187.301 36.6889 186.865 37.2568 186.328 37.753C185.792 38.2621 185.141 38.7452 184.376 39.2021C184.028 39.4241 183.753 39.522 183.551 39.4959C183.35 39.4828 183.176 39.3784 183.028 39.1825C182.894 38.9737 182.847 38.7648 182.887 38.5559C182.941 38.36 183.182 38.1316 183.612 37.8705C184.309 37.4527 184.879 37.0349 185.322 36.6171C185.778 36.2124 186.134 35.7555 186.389 35.2463C186.657 34.7371 186.845 34.1561 186.952 33.5034C187.059 32.8375 187.12 32.0477 187.133 31.1338C187.133 30.8335 187.207 30.6246 187.354 30.5071C187.502 30.3766 187.69 30.3113 187.918 30.3113C188.146 30.3113 188.32 30.37 188.441 30.4875C188.562 30.592 188.622 30.7943 188.622 31.0946ZM192.204 38.5755C192.204 38.8366 192.143 39.0193 192.023 39.1238C191.902 39.2413 191.714 39.3 191.459 39.3C191.191 39.3 190.99 39.2478 190.856 39.1434C190.735 39.052 190.675 38.8627 190.675 38.5755V31.0946C190.675 30.7291 190.735 30.481 190.856 30.3504C190.99 30.2199 191.191 30.1546 191.459 30.1546C191.728 30.1546 191.915 30.2264 192.023 30.37C192.143 30.5006 192.204 30.7356 192.204 31.075V38.5755ZM185.081 32.7984C184.383 34.822 183.263 36.7803 181.72 38.6734C181.532 38.9084 181.345 39.0455 181.157 39.0846C180.982 39.1369 180.781 39.0781 180.553 38.9084C180.352 38.7648 180.245 38.595 180.231 38.3992C180.218 38.2034 180.352 37.9357 180.634 37.5963C181.251 36.8521 181.807 36.0427 182.304 35.1679C182.814 34.2932 183.296 33.2879 183.753 32.1521C183.86 31.8518 183.994 31.6625 184.155 31.5842C184.316 31.5059 184.524 31.5059 184.779 31.5842C185.007 31.6495 185.148 31.7735 185.201 31.9563C185.255 32.1391 185.215 32.4197 185.081 32.7984ZM184.658 29.8217C184.35 30.2264 183.927 30.2068 183.39 29.7629C183.162 29.5671 182.934 29.3909 182.706 29.2342C182.492 29.0775 182.27 28.9274 182.042 28.7838C181.828 28.6402 181.6 28.4965 181.358 28.3529C181.13 28.2093 180.882 28.0527 180.614 27.8829C180.09 27.5435 179.956 27.1845 180.211 26.8058C180.359 26.5708 180.52 26.4468 180.694 26.4338C180.882 26.4077 181.103 26.4664 181.358 26.61C181.975 26.9886 182.512 27.3215 182.968 27.6088C183.424 27.896 183.88 28.2224 184.336 28.5879C184.645 28.849 184.812 29.071 184.839 29.2538C184.866 29.4235 184.806 29.6128 184.658 29.8217ZM185.201 24.6713C184.92 25.0499 184.504 25.0238 183.954 24.5929C183.484 24.2274 183.001 23.8879 182.505 23.5746C182.009 23.2613 181.559 22.9871 181.157 22.7521C180.889 22.5954 180.734 22.4257 180.694 22.2429C180.667 22.0471 180.728 21.8513 180.875 21.6554C181.13 21.2899 181.526 21.2638 182.062 21.5771C182.626 21.9165 183.122 22.2233 183.551 22.4975C183.994 22.7586 184.45 23.072 184.92 23.4375C185.443 23.8292 185.537 24.2404 185.201 24.6713Z" fill="#1B2A74"/>
</svg>
