<svg width="24" height="24" viewBox="0 0 24 24" fill="none" xmlns="http://www.w3.org/2000/svg">
<path fill-rule="evenodd" clip-rule="evenodd" d="M12.0939 3.97461H12.1042V3.97488C12.4607 3.97624 12.949 3.9845 13.456 4.03427C14.0493 4.09251 14.7771 4.21625 15.3794 4.52176C16.0484 4.86104 16.6901 5.32922 17.1118 6.24689C17.5001 7.09182 17.6582 8.22765 17.6582 9.80355C17.6582 12.3826 18.6563 13.8886 19.4993 15.1605L19.4993 15.1606C19.5528 15.2414 19.6057 15.3212 19.6577 15.4002C20.6002 16.8342 19.6743 19.1444 17.5237 19.1444H15.4976C15.4618 19.911 15.142 20.6365 14.527 21.1691C13.8835 21.7264 13.0048 21.999 12.001 21.999C10.9972 21.999 10.1185 21.7264 9.47498 21.1691C8.85994 20.6365 8.54012 19.911 8.50436 19.1444H6.47817C4.32763 19.1444 3.40173 16.8342 4.34418 15.4002C4.39615 15.3212 4.44904 15.2414 4.50255 15.1606L4.50258 15.1606L4.5026 15.1605C5.34558 13.8886 6.34372 12.3826 6.34372 9.80355C6.34372 8.22765 6.50178 7.09182 6.89005 6.24689C7.31176 5.32922 7.95354 4.86104 8.62248 4.52176C9.22483 4.21625 9.95261 4.09251 10.5459 4.03427C11.0529 3.9845 11.5412 3.97624 11.8977 3.97488V3.97461H11.908L12.0009 3.97464L12.0939 3.97461ZM10.5105 19.1444C10.5396 19.3588 10.6347 19.5277 10.7843 19.6573C10.9766 19.8239 11.3479 19.999 12.001 19.999C12.654 19.999 13.0253 19.8239 13.2176 19.6573C13.3673 19.5277 13.4624 19.3588 13.4915 19.1444H12.1042H11.8977H10.5105ZM10.7413 6.0247C11.1992 5.97975 11.6501 5.97513 12.0009 5.97466C12.3518 5.97513 12.8027 5.97975 13.2606 6.0247C13.7853 6.07621 14.2115 6.17196 14.4747 6.30545C14.9006 6.52146 15.1244 6.71177 15.2945 7.082C15.4981 7.52499 15.6582 8.30648 15.6582 9.80355C15.6582 12.9956 16.9494 14.9379 17.8197 16.2471L17.8197 16.2471C17.8773 16.3337 17.933 16.4175 17.9864 16.4987C18.0292 16.5639 18.0606 16.723 17.9715 16.8964C17.9326 16.9721 17.8786 17.0311 17.8153 17.0711C17.7559 17.1087 17.6652 17.1444 17.5237 17.1444H12.1042H11.8977H6.47817C6.33665 17.1444 6.24602 17.1087 6.18655 17.0711C6.12326 17.0311 6.06927 16.9721 6.03039 16.8964C5.94133 16.723 5.97265 16.5639 6.01553 16.4987C6.06891 16.4175 6.12463 16.3336 6.18219 16.2471C7.05247 14.9379 8.34372 12.9956 8.34372 9.80355C8.34372 8.30648 8.50379 7.52499 8.70736 7.082C8.87749 6.71177 9.10126 6.52146 9.52715 6.30545C9.79034 6.17196 10.2166 6.07621 10.7413 6.0247Z" fill="#3755BB"/>
<circle cx="17.5469" cy="4.45117" r="4" fill="#F59638"/>
</svg>
