<svg width="20" height="20" viewBox="0 0 20 20" fill="none" xmlns="http://www.w3.org/2000/svg">
<path d="M14.1667 9.1668C14.45 9.1668 14.725 9.20013 15 9.2418V6.3168C15 5.65013 14.6083 5.05013 14 4.7918L9.41667 2.7918C8.99167 2.60846 8.50833 2.60846 8.08333 2.7918L3.5 4.7918C2.89167 5.05846 2.5 5.65846 2.5 6.3168V9.3168C2.5 13.1001 5.16667 16.6418 8.75 17.5001C9.20833 17.3918 9.65 17.2335 10.0833 17.0418C9.50833 16.2251 9.16667 15.2335 9.16667 14.1668C9.16667 11.4085 11.4083 9.1668 14.1667 9.1668Z" fill="white"/>
<path d="M14.1673 10.834C12.3257 10.834 10.834 12.3257 10.834 14.1673C10.834 16.009 12.3257 17.5007 14.1673 17.5007C16.009 17.5007 17.5007 16.009 17.5007 14.1673C17.5007 12.3257 16.009 10.834 14.1673 10.834ZM14.1673 11.984C14.684 11.984 15.1007 12.409 15.1007 12.9173C15.1007 13.4257 14.6757 13.8507 14.1673 13.8507C13.659 13.8507 13.234 13.4257 13.234 12.9173C13.234 12.409 13.6507 11.984 14.1673 11.984ZM14.1673 16.459C13.3923 16.459 12.7173 16.0757 12.3007 15.484C12.3423 14.884 13.559 14.584 14.1673 14.584C14.7757 14.584 15.9923 14.884 16.034 15.484C15.6173 16.0757 14.9423 16.459 14.1673 16.459Z" fill="white"/>
</svg>
