<svg width="104" height="87" viewBox="0 0 104 87" fill="none" xmlns="http://www.w3.org/2000/svg">
<g id="Illustrations">
<path id="Oval-Copy-2" fill-rule="evenodd" clip-rule="evenodd" d="M52 86.5C80.7188 86.5 104 84.4107 104 81.8333C104 79.256 75.453 78.5 46.7342 78.5C18.0154 78.5 0 79.256 0 81.8333C0 84.4107 23.2812 86.5 52 86.5Z" fill="#F7F8FC"/>
<path id="Rectangle-Copy-14" fill-rule="evenodd" clip-rule="evenodd" d="M17.1138 45.5H69.772L55.291 58.5H2.63281L17.1138 45.5Z" fill="#E5E7E9"/>
<g id="Group-Copy">
<path id="Rectangle-Copy-10" fill-rule="evenodd" clip-rule="evenodd" d="M85.9102 30.4805L64.7363 23.2471L61.4661 17.135L82.64 24.3684L85.9102 30.4805Z" fill="#E5E7E9"/>
<path id="Rectangle-Copy-11" fill-rule="evenodd" clip-rule="evenodd" d="M86.2969 28.6641L43.4557 14.4204L20.9296 48.8633L63.7709 63.107L86.2969 28.6641Z" fill="#EDEEF2"/>
<path id="Rectangle-Copy-12" d="M40.9572 13.4518L22.4258 7.23633L0.645372 40.8324L19.1768 47.0479L40.9572 13.4518Z" fill="url(#paint0_linear_858_4123)"/>
<path id="Rectangle-Copy-13" fill-rule="evenodd" clip-rule="evenodd" d="M20.6757 8.00233L40.5976 14.767L61.5567 13.2282L41.6348 6.46348L20.6757 8.00233Z" fill="#F8F9FB"/>
</g>
<path id="Rectangle-Copy-15" d="M69.7715 45.5H17.1133V81.5H69.7715V45.5Z" fill="url(#paint1_linear_858_4123)"/>
<g id="Rectangle-Copy-17">
<mask id="mask0_858_4123" style="mask-type:alpha" maskUnits="userSpaceOnUse" x="69" y="45" width="24" height="37">
<g id="mask-4-1">
<path id="Vector" d="M92.1512 45.5H69.7715V81.5H92.1512V45.5Z" fill="white"/>
</g>
</mask>
<g mask="url(#mask0_858_4123)">
<path id="Mask" d="M69.7706 45.5H92.1504V81.5H69.7706V45.5Z" fill="#E0E3E9"/>
<path id="Rectangle-Copy" fill-rule="evenodd" clip-rule="evenodd" d="M92.152 45.5H69.7722L75.0381 63.5L101.367 61.5L92.152 45.5Z" fill="#D5D7DE"/>
</g>
</g>
<path id="Rectangle-Copy-18" fill-rule="evenodd" clip-rule="evenodd" d="M92.1519 45.5H69.7721L81.6203 58.5H104L92.1519 45.5Z" fill="#F8F9FB"/>
</g>
<defs>
<linearGradient id="paint0_linear_858_4123" x1="29.6253" y1="9.65107" x2="31.4761" y2="43.5692" gradientUnits="userSpaceOnUse">
<stop stop-color="#FCFCFD"/>
<stop offset="1" stop-color="#EEEFF3"/>
</linearGradient>
<linearGradient id="paint1_linear_858_4123" x1="17.1133" y1="48.92" x2="53.3926" y2="91.9041" gradientUnits="userSpaceOnUse">
<stop stop-color="#FCFCFD"/>
<stop offset="1" stop-color="#E9EBEF"/>
</linearGradient>
</defs>
</svg>
